<svg width="82" height="81" viewBox="0 0 82 81" fill="none" xmlns="http://www.w3.org/2000/svg">
<g clip-path="url(#clip0_5149_12736)">
<path d="M60.2196 69.9396H26.9487C26.0274 69.9396 25.2852 69.2064 25.2852 68.2963C25.2852 67.3862 26.0274 66.6531 26.9487 66.6531H60.2196C61.141 66.6531 61.8832 67.3862 61.8832 68.2963C61.8832 69.2064 61.141 69.9396 60.2196 69.9396Z" fill="#1E1E1C"/>
<path d="M36.9057 52.3188C36.6242 52.3188 36.3427 52.243 36.0868 52.0913C35.5749 51.7879 35.2422 51.257 35.2422 50.6756V29.2879C35.2422 28.7065 35.5493 28.1503 36.0868 27.8722C36.5986 27.5688 37.2384 27.5688 37.7503 27.8722L56.3052 38.566C56.8171 38.8694 57.1242 39.4003 57.1242 39.9817C57.1242 40.5632 56.8171 41.0941 56.3052 41.3975L37.7503 52.0913C37.4944 52.243 37.2128 52.3188 36.9057 52.3188ZM38.5693 32.1447V47.8188L52.1592 39.9817L38.5693 32.1447Z" fill="#1E1E1C"/>
<path d="M73.0165 65.0098H14.1525C11.8236 65.0098 9.92969 63.1391 9.92969 60.8385V51.6615C9.92969 50.7514 10.6719 50.0183 11.5932 50.0183C12.5146 50.0183 13.2568 50.7514 13.2568 51.6615V60.8385C13.2568 61.3188 13.6663 61.7233 14.1525 61.7233H73.0165C73.5027 61.7233 73.9122 61.3188 73.9122 60.8385V31.9677C73.9122 31.0576 74.6544 30.3245 75.5758 30.3245C76.4971 30.3245 77.2393 31.0576 77.2393 31.9677V60.8385C77.2393 63.1391 75.3454 65.0098 73.0165 65.0098Z" fill="#1D1D1B"/>
<path d="M11.5932 37.4789C10.6719 37.4789 9.92969 36.7458 9.92969 35.8356V19.125C9.92969 16.8244 11.8236 14.9536 14.1525 14.9536H51.5183C52.4397 14.9536 53.1819 15.6868 53.1819 16.5969C53.1819 17.507 52.4397 18.2401 51.5183 18.2401H14.1525C13.6663 18.2401 13.2568 18.6446 13.2568 19.125V35.8104C13.2568 36.7205 12.5146 37.4536 11.5932 37.4536V37.4789Z" fill="#1D1D1B"/>
<path d="M4.99064 56.566C4.7603 56.566 4.52996 56.5154 4.32522 56.4395C3.71099 56.1867 3.32709 55.58 3.32709 54.9227V52.8749C1.48439 52.8749 0 51.4086 0 49.5884V38.0351C0 36.2148 1.48439 34.7485 3.32709 34.7485H20.8071C22.6498 34.7485 24.1342 36.2148 24.1342 38.0351V49.5884C24.1342 51.4086 22.6498 52.8749 20.8071 52.8749H9.64856L6.11673 56.1109C5.80961 56.389 5.40013 56.5407 4.99064 56.5407V56.566ZM3.32709 38.0351V49.5884H4.99064C5.88639 49.5884 6.603 50.271 6.65418 51.1558L7.52434 50.3468C8.24095 49.8159 8.93196 49.5884 9.64856 49.5884H20.8071V38.0351H3.32709Z" fill="#1D1D1B"/>
<path d="M13.7183 43.0407H7.03855C6.1172 43.0407 5.375 42.3075 5.375 41.3974C5.375 40.4873 6.1172 39.7542 7.03855 39.7542H13.7183C14.6397 39.7542 15.3819 40.4873 15.3819 41.3974C15.3819 42.3075 14.6397 43.0407 13.7183 43.0407Z" fill="#1D1D1B"/>
<path d="M16.7381 47.9199H7.06394C6.14259 47.9199 5.40039 47.1868 5.40039 46.2767C5.40039 45.3666 6.14259 44.6334 7.06394 44.6334H16.7381C17.6594 44.6334 18.4016 45.3666 18.4016 46.2767C18.4016 47.1868 17.6594 47.9199 16.7381 47.9199Z" fill="#1E1E1C"/>
<path d="M52.5419 33.4593C52.1068 33.4593 51.6973 33.3076 51.3646 32.9789C50.7248 32.3469 50.7248 31.2851 51.3646 30.6531L60.962 21.198C61.6018 20.566 62.6512 20.566 63.3166 21.198L72.7092 30.4761C73.349 31.1081 73.349 32.1699 72.7092 32.8019C72.0694 33.434 70.9945 33.434 70.3546 32.8019L62.1393 24.6868L53.7192 32.9789C53.3865 33.3076 52.977 33.4593 52.5419 33.4593Z" fill="#1E1E1C"/>
<path d="M80.2079 28.757C79.7984 28.757 79.3889 28.6053 79.0562 28.3019L71.8134 21.5519L66.5668 26.7345C65.927 27.3665 64.8521 27.3665 64.2123 26.7345C63.5725 26.1025 63.5725 25.0407 64.2123 24.4087L70.6105 18.0884C71.2504 17.4564 72.2741 17.4564 72.9395 18.0632L81.3596 25.9002C82.025 26.5323 82.0506 27.5688 81.4364 28.2261C81.1037 28.58 80.6686 28.7317 80.2335 28.7317L80.2079 28.757Z" fill="#1E1E1C"/>
<path d="M57.199 15.1559C55.9962 15.1559 54.998 16.1166 54.998 17.33C54.998 18.5435 55.9706 19.5042 57.199 19.5042C58.4275 19.5042 59.4 18.5435 59.4 17.33C59.4 16.1166 58.4275 15.1559 57.199 15.1559Z" fill="#1D1D1B"/>
<path d="M78.4685 33.611H53.3873C51.4422 33.611 49.8555 32.0435 49.8555 30.1222V13.6138C49.8555 11.6924 51.4422 10.125 53.3873 10.125H78.4685C80.4135 10.125 82.0003 11.6924 82.0003 13.6138V30.1222C82.0003 32.0435 80.4135 33.611 78.4685 33.611ZM53.3873 13.4115C53.3873 13.4115 53.1826 13.5126 53.1826 13.6138V30.1222C53.1826 30.1222 53.2849 30.3244 53.3873 30.3244H78.4685C78.4685 30.3244 78.6732 30.2233 78.6732 30.1222V13.6138C78.6732 13.6138 78.5708 13.4115 78.4685 13.4115H53.3873Z" fill="#1D1D1B"/>
</g>
<defs>
<clipPath id="clip0_5149_12736">
<rect width="82" height="59.8146" fill="white" transform="translate(0 10.125)"/>
</clipPath>
</defs>
</svg>