<svg width="82" height="81" viewBox="0 0 82 81" fill="none" xmlns="http://www.w3.org/2000/svg">
<g clip-path="url(#clip0_5149_12674)">
<path d="M67.6498 41.7083C65.4076 41.7083 63.1655 40.8908 61.2071 39.3404C59.9583 38.3256 59.0784 36.9443 58.6527 35.1684C57.5174 38.9457 53.9696 41.6801 49.7975 41.6801C45.6253 41.6801 42.0492 38.8894 40.9139 35.0556C39.807 38.8894 36.2308 41.6801 32.0303 41.6801C27.8297 41.6801 24.2536 38.8894 23.1467 35.0556C22.0114 38.8894 18.4352 41.6801 14.1779 41.6801C10.2896 41.6801 6.77019 39.284 5.43623 35.704C4.81182 34.069 5.0105 32.1522 5.9471 30.5454L13.0143 16.2535C13.809 14.675 15.4551 13.632 17.2148 13.632H64.7549C66.5429 13.632 68.1607 14.6186 68.9554 16.2254L76.278 30.8555C76.278 30.8555 76.3064 30.9119 76.3064 30.94C76.8456 32.1804 76.9875 33.5052 76.7037 34.661C75.9658 37.7054 73.7236 40.1579 70.6867 41.1727C69.6933 41.5109 68.6716 41.6801 67.6498 41.6801V41.7083ZM40.9423 29.2205C42.7871 29.2205 44.263 30.7145 44.263 32.5186C44.263 35.5631 46.7606 38.0437 49.8259 38.0437C52.8911 38.0437 55.3887 35.5631 55.3887 32.5186C55.3887 30.6863 56.893 29.2205 58.7095 29.2205C60.5259 29.2205 62.0018 30.63 62.0302 32.4341C62.0869 34.3509 62.5978 35.7322 63.5344 36.4933C65.3509 37.9591 67.5363 38.4101 69.4947 37.7336C71.3395 37.1135 72.6735 35.6476 73.1276 33.8153C73.2127 33.4207 73.156 32.9415 72.9573 32.4341L65.6631 17.8321C65.4928 17.4939 65.1522 17.2965 64.7832 17.2965H17.2148C16.8458 17.2965 16.4769 17.522 16.335 17.8603L9.23943 32.2931C8.8137 33.0542 8.70017 33.8435 8.95561 34.4637C9.75031 36.5779 11.9073 38.0437 14.2347 38.0437C17.3283 38.0437 19.8543 35.5631 19.8543 32.5186C19.8543 30.6863 21.3586 29.2205 23.1751 29.2205C24.9915 29.2205 26.4958 30.7145 26.4958 32.5186C26.4958 35.5631 28.9934 38.0437 32.0587 38.0437C35.1239 38.0437 37.6215 35.5631 37.6215 32.5186C37.6215 30.6863 39.1258 29.2205 40.9423 29.2205Z" fill="#1E1E1C"/>
<path d="M69.3806 79.3124H12.6163C11.5946 79.3124 10.7715 78.495 10.7715 77.4802V40.8344C10.7715 39.8196 11.5946 39.0021 12.6163 39.0021C13.6381 39.0021 14.4612 39.8196 14.4612 40.8344V75.6479H67.5357V40.8344C67.5357 39.8196 68.3588 39.0021 69.3806 39.0021C70.4023 39.0021 71.2254 39.8196 71.2254 40.8344V77.4802C71.2254 78.495 70.4023 79.3124 69.3806 79.3124Z" fill="#1E1E1C"/>
<path d="M36.4594 79.3125C35.4376 79.3125 34.6145 78.495 34.6145 77.4802V50.3341H23.3752V77.4802C23.3752 78.495 22.5521 79.3125 21.5304 79.3125C20.5086 79.3125 19.6855 78.495 19.6855 77.4802V48.5018C19.6855 47.487 20.5086 46.6696 21.5304 46.6696H36.4594C37.4811 46.6696 38.3042 47.487 38.3042 48.5018V77.4802C38.3042 78.495 37.4811 79.3125 36.4594 79.3125Z" fill="#1D1D1B"/>
<path d="M60.4427 65.1334H45.5421C44.5203 65.1334 43.6973 64.3159 43.6973 63.3011V48.5018C43.6973 47.487 44.5203 46.6696 45.5421 46.6696H60.4427C61.4645 46.6696 62.2876 47.487 62.2876 48.5018V63.3011C62.2876 64.3159 61.4645 65.1334 60.4427 65.1334ZM47.3869 61.4688H58.6263V50.3059H47.3869V61.4688Z" fill="#1D1D1B"/>
<path d="M61.4357 17.2966C60.4139 17.2966 59.5909 16.4791 59.5909 15.4643V8.72708H21.5588V15.4643C21.5588 16.4791 20.7357 17.2966 19.714 17.2966C18.6922 17.2966 17.8691 16.4791 17.8691 15.4643V6.89479C17.8691 5.87998 18.6922 5.0625 19.714 5.0625H61.4357C62.4574 5.0625 63.2805 5.87998 63.2805 6.89479V15.4643C63.2805 16.4791 62.4574 17.2966 61.4357 17.2966Z" fill="#1D1D1B"/>
</g>
<defs>
<clipPath id="clip0_5149_12674">
<rect width="71.75" height="74.25" fill="white" transform="translate(5.125 5.0625)"/>
</clipPath>
</defs>
</svg>